<svg xmlns="http://www.w3.org/2000/svg" viewBox="0 0 26 26">
  <path d="M12.5 0.199219C12.398438 0.300781 9.398438 3.101563 7.5 5.898438C7.398438 6.101563 7.300781 6.398438 7.5 6.601563C7.601563 6.800781 7.800781 7 8.101563 7L11 7L11 19L8.101563 19C7.800781 19 7.601563 19.101563 7.5 19.398438C7.398438 19.601563 7.398438 19.898438 7.5 20.101563C9.398438 22.898438 12.398438 25.699219 12.5 25.800781C12.601563 25.898438 12.800781 26 12.898438 26C13 26 13.199219 25.898438 13.300781 25.800781C13.398438 25.699219 16.398438 22.898438 18.300781 20.101563C18.398438 19.898438 18.5 19.601563 18.300781 19.398438C18.199219 19.199219 17.898438 19 17.699219 19L15 19L15 7L17.898438 7C18.199219 7 18.398438 6.898438 18.5 6.601563C18.601563 6.398438 18.601563 6.101563 18.5 5.898438C16.601563 3.101563 13.601563 0.300781 13.5 0.199219C13.300781 0.101563 13.101563 0 13 0C12.898438 0 12.699219 0.101563 12.5 0.199219Z" fill="#2E999F" />
</svg>